{
	"asset":{
		"generator":"Khronos glTF Blender I/O v3.6.27",
		"version":"2.0"
	},
	"scene":0,
	"scenes":[
		{
			"name":"Scene",
			"nodes":[
				0,
				1,
				2,
				3,
				4,
				5,
				6,
				7
			]
		}
	],
	"nodes":[
		{
			"mesh":0,
			"name":"\u0427\u0430\u0441\u043e\u0432\u043d\u044f_\u0441\u0442\u0443\u043f\u0435\u043d\u0438",
			"translation":[
				14.27987289428711,
				0.004576362669467926,
				-11.261221885681152
			]
		},
		{
			"mesh":1,
			"name":"\u0427\u0430\u0441\u043e\u0432\u043d\u044f_\u043a\u043e\u043b\u043e\u043d\u043d\u0430",
			"translation":[
				14.029708862304688,
				0.050291530787944794,
				-11.013924598693848
			]
		},
		{
			"mesh":2,
			"name":"\u0427\u0430\u0441\u043e\u0432\u043d\u044f_\u0434\u0432\u0435\u0440\u044c.002",
			"translation":[
				14.31875991821289,
				1.0498006343841553,
				-10.978439331054688
			]
		},
		{
			"mesh":3,
			"name":"\u0427\u0430\u0441\u043e\u0432\u043d\u044f_\u0434\u0432\u0435\u0440\u044c.001",
			"rotation":[
				0,
				-0.7071068286895752,
				0,
				0.7071067094802856
			],
			"translation":[
				13.997090339660645,
				1.0498006343841553,
				-11.222334861755371
			]
		},
		{
			"mesh":4,
			"name":"\u0427\u0430\u0441\u043e\u0432\u043d\u044f_\u0434\u0432\u0435\u0440\u044c",
			"rotation":[
				0,
				-0.7071068286895752,
				0,
				0.7071067094802856
			],
			"translation":[
				13.98642635345459,
				0.14289367198944092,
				-11.222334861755371
			]
		},
		{
			"mesh":5,
			"name":"\u0427\u0430\u0441\u043e\u0432\u043d\u044f_\u041e\u043a\u043d\u043e_1\u04454",
			"translation":[
				14.31875991821289,
				0.15195399522781372,
				-10.967772483825684
			]
		},
		{
			"name":"\u0427\u0430\u0441\u043e\u0432\u043d\u044f.001",
			"scale":[
				0.7829709649085999,
				0.7829709649085999,
				0.7829709649085999
			],
			"translation":[
				14.27987289428711,
				0.004576362669467926,
				-11.261221885681152
			]
		},
		{
			"mesh":6,
			"name":"\u0427\u0430\u0441\u043e\u0432\u043d\u044f",
			"translation":[
				14.27987289428711,
				0.004576362669467926,
				-11.261221885681152
			]
		}
	],
	"materials":[
		{
			"doubleSided":true,
			"name":"\u0416\u0435\u043b\u0442\u0430\u044f \u0448\u0442\u0443\u043a\u0430\u0442\u0443\u0440\u043a\u0430.002",
			"pbrMetallicRoughness":{
				"baseColorFactor":[
					0.5315035581588745,
					0.4513797163963318,
					0.19800670444965363,
					1
				],
				"metallicFactor":0,
				"roughnessFactor":0.5
			}
		},
		{
			"doubleSided":true,
			"name":"\u0411\u0435\u043b\u044b\u0439 \u043c\u0440\u0430\u043c\u043e\u0440.002",
			"pbrMetallicRoughness":{
				"baseColorFactor":[
					1,
					0.9651277661323547,
					0.938328742980957,
					1
				],
				"metallicFactor":0,
				"roughnessFactor":0.5
			}
		},
		{
			"doubleSided":true,
			"name":"\u0441\u0442\u0435\u043a\u043b\u043e \u043e\u043a\u043d\u0430.002",
			"pbrMetallicRoughness":{
				"baseColorFactor":[
					0.02687082625925541,
					0.040879808366298676,
					0.0485832616686821,
					1
				],
				"metallicFactor":0.27426159381866455,
				"roughnessFactor":0.44092828035354614
			}
		},
		{
			"doubleSided":true,
			"name":"\u0417\u043e\u043b\u043e\u0442\u043e\u0439.002",
			"pbrMetallicRoughness":{
				"baseColorFactor":[
					0.8000000715255737,
					0.2664557993412018,
					0.0043340339325368404,
					1
				],
				"metallicFactor":0.6708860993385315,
				"roughnessFactor":0.056962013244628906
			}
		},
		{
			"doubleSided":true,
			"name":"\u0421\u0435\u0440\u044b\u0439.002",
			"pbrMetallicRoughness":{
				"baseColorFactor":[
					0.18172529339790344,
					0.18172529339790344,
					0.18172529339790344,
					1
				],
				"metallicFactor":0,
				"roughnessFactor":0.5
			}
		}
	],
	"meshes":[
		{
			"name":"Circle.032",
			"primitives":[
				{
					"attributes":{
						"POSITION":0,
						"NORMAL":1,
						"TEXCOORD_0":2
					},
					"indices":3
				}
			]
		},
		{
			"name":"Circle.033",
			"primitives":[
				{
					"attributes":{
						"POSITION":4,
						"NORMAL":5,
						"TEXCOORD_0":6
					},
					"indices":7,
					"material":0
				}
			]
		},
		{
			"name":"Cube.102",
			"primitives":[
				{
					"attributes":{
						"POSITION":8,
						"NORMAL":9,
						"TEXCOORD_0":10
					},
					"indices":11,
					"material":0
				},
				{
					"attributes":{
						"POSITION":12,
						"NORMAL":13,
						"TEXCOORD_0":14
					},
					"indices":15,
					"material":1
				},
				{
					"attributes":{
						"POSITION":16,
						"NORMAL":17,
						"TEXCOORD_0":18
					},
					"indices":19,
					"material":2
				}
			]
		},
		{
			"name":"Cube.106",
			"primitives":[
				{
					"attributes":{
						"POSITION":20,
						"NORMAL":21,
						"TEXCOORD_0":22
					},
					"indices":11,
					"material":0
				},
				{
					"attributes":{
						"POSITION":23,
						"NORMAL":24,
						"TEXCOORD_0":25
					},
					"indices":15,
					"material":1
				},
				{
					"attributes":{
						"POSITION":26,
						"NORMAL":27,
						"TEXCOORD_0":28
					},
					"indices":19,
					"material":2
				}
			]
		},
		{
			"name":"Cube.108",
			"primitives":[
				{
					"attributes":{
						"POSITION":29,
						"NORMAL":30,
						"TEXCOORD_0":31
					},
					"indices":32,
					"material":1
				},
				{
					"attributes":{
						"POSITION":33,
						"NORMAL":34,
						"TEXCOORD_0":35
					},
					"indices":36,
					"material":2
				},
				{
					"attributes":{
						"POSITION":37,
						"NORMAL":38,
						"TEXCOORD_0":39
					},
					"indices":40,
					"material":0
				}
			]
		},
		{
			"name":"Cube.111",
			"primitives":[
				{
					"attributes":{
						"POSITION":41,
						"NORMAL":42,
						"TEXCOORD_0":43
					},
					"indices":44,
					"material":1
				},
				{
					"attributes":{
						"POSITION":45,
						"NORMAL":46,
						"TEXCOORD_0":47
					},
					"indices":48,
					"material":2
				},
				{
					"attributes":{
						"POSITION":49,
						"NORMAL":50,
						"TEXCOORD_0":51
					},
					"indices":52,
					"material":0
				}
			]
		},
		{
			"name":"Plane.199",
			"primitives":[
				{
					"attributes":{
						"POSITION":53,
						"NORMAL":54,
						"TEXCOORD_0":55
					},
					"indices":56,
					"material":0
				},
				{
					"attributes":{
						"POSITION":57,
						"NORMAL":58,
						"TEXCOORD_0":59
					},
					"indices":60,
					"material":3
				},
				{
					"attributes":{
						"POSITION":61,
						"NORMAL":62,
						"TEXCOORD_0":63
					},
					"indices":64,
					"material":4
				},
				{
					"attributes":{
						"POSITION":65,
						"NORMAL":66,
						"TEXCOORD_0":67
					},
					"indices":68,
					"material":1
				}
			]
		}
	],
	"accessors":[
		{
			"bufferView":0,
			"componentType":5126,
			"count":672,
			"max":[
				0.5794897675514221,
				-1.4583970475712249e-08,
				0.5794916152954102
			],
			"min":[
				-0.5794931054115295,
				-0.135757714509964,
				-0.5794913172721863
			],
			"type":"VEC3"
		},
		{
			"bufferView":1,
			"componentType":5126,
			"count":672,
			"type":"VEC3"
		},
		{
			"bufferView":2,
			"componentType":5126,
			"count":672,
			"type":"VEC2"
		},
		{
			"bufferView":3,
			"componentType":5123,
			"count":1050,
			"type":"SCALAR"
		},
		{
			"bufferView":4,
			"componentType":5126,
			"count":5710,
			"max":[
				0.5793068408966064,
				0.9634941220283508,
				0.0789809599518776
			],
			"min":[
				-0.07897946238517761,
				0,
				-0.5735751986503601
			],
			"type":"VEC3"
		},
		{
			"bufferView":5,
			"componentType":5126,
			"count":5710,
			"type":"VEC3"
		},
		{
			"bufferView":6,
			"componentType":5126,
			"count":5710,
			"type":"VEC2"
		},
		{
			"bufferView":7,
			"componentType":5123,
			"count":14640,
			"type":"SCALAR"
		},
		{
			"bufferView":8,
			"componentType":5126,
			"count":320,
			"max":[
				0.04865097254514694,
				0.1873612105846405,
				0.020187893882393837
			],
			"min":[
				-0.1258932501077652,
				0.012817002832889557,
				-0.5857529044151306
			],
			"type":"VEC3"
		},
		{
			"bufferView":9,
			"componentType":5126,
			"count":320,
			"type":"VEC3"
		},
		{
			"bufferView":10,
			"componentType":5126,
			"count":320,
			"type":"VEC2"
		},
		{
			"bufferView":11,
			"componentType":5123,
			"count":576,
			"type":"SCALAR"
		},
		{
			"bufferView":12,
			"componentType":5126,
			"count":317,
			"max":[
				0.04184986650943756,
				0.18056009709835052,
				0.002328435890376568
			],
			"min":[
				-0.11909213662147522,
				0.019618108868598938,
				-0.5678934454917908
			],
			"type":"VEC3"
		},
		{
			"bufferView":13,
			"componentType":5126,
			"count":317,
			"type":"VEC3"
		},
		{
			"bufferView":14,
			"componentType":5126,
			"count":317,
			"type":"VEC2"
		},
		{
			"bufferView":15,
			"componentType":5123,
			"count":768,
			"type":"SCALAR"
		},
		{
			"bufferView":16,
			"componentType":5126,
			"count":48,
			"max":[
				0.03266454115509987,
				0.17137478291988373,
				-0.0008417818462476134
			],
			"min":[
				-0.10990680754184723,
				0.02880343608558178,
				-0.5647231936454773
			],
			"type":"VEC3"
		},
		{
			"bufferView":17,
			"componentType":5126,
			"count":48,
			"type":"VEC3"
		},
		{
			"bufferView":18,
			"componentType":5126,
			"count":48,
			"type":"VEC2"
		},
		{
			"bufferView":19,
			"componentType":5123,
			"count":96,
			"type":"SCALAR"
		},
		{
			"bufferView":20,
			"componentType":5126,
			"count":320,
			"max":[
				0.04865097254514694,
				0.1873612105846405,
				0.020187893882393837
			],
			"min":[
				-0.1258932650089264,
				0.012817002832889557,
				-0.5857529044151306
			],
			"type":"VEC3"
		},
		{
			"bufferView":21,
			"componentType":5126,
			"count":320,
			"type":"VEC3"
		},
		{
			"bufferView":22,
			"componentType":5126,
			"count":320,
			"type":"VEC2"
		},
		{
			"bufferView":23,
			"componentType":5126,
			"count":317,
			"max":[
				0.04184986650943756,
				0.18056009709835052,
				0.002328435890376568
			],
			"min":[
				-0.11909215897321701,
				0.019618108868598938,
				-0.5678934454917908
			],
			"type":"VEC3"
		},
		{
			"bufferView":24,
			"componentType":5126,
			"count":317,
			"type":"VEC3"
		},
		{
			"bufferView":25,
			"componentType":5126,
			"count":317,
			"type":"VEC2"
		},
		{
			"bufferView":26,
			"componentType":5126,
			"count":48,
			"max":[
				0.03266454115509987,
				0.17137478291988373,
				-0.0008417818462476134
			],
			"min":[
				-0.10990682989358902,
				0.02880343608558178,
				-0.5647231936454773
			],
			"type":"VEC3"
		},
		{
			"bufferView":27,
			"componentType":5126,
			"count":48,
			"type":"VEC3"
		},
		{
			"bufferView":28,
			"componentType":5126,
			"count":48,
			"type":"VEC2"
		},
		{
			"bufferView":29,
			"componentType":5126,
			"count":181,
			"max":[
				0.07991107553243637,
				0.5194835662841797,
				-0.001433081110008061
			],
			"min":[
				-0.15715280175209045,
				-0.1355271190404892,
				-0.023849327117204666
			],
			"type":"VEC3"
		},
		{
			"bufferView":30,
			"componentType":5126,
			"count":181,
			"type":"VEC3"
		},
		{
			"bufferView":31,
			"componentType":5126,
			"count":181,
			"type":"VEC2"
		},
		{
			"bufferView":32,
			"componentType":5123,
			"count":396,
			"type":"SCALAR"
		},
		{
			"bufferView":33,
			"componentType":5126,
			"count":32,
			"max":[
				0.06616872549057007,
				0.5057412385940552,
				-0.02384929358959198
			],
			"min":[
				-0.14341045916080475,
				-0.12178479135036469,
				-0.023849327117204666
			],
			"type":"VEC3"
		},
		{
			"bufferView":34,
			"componentType":5126,
			"count":32,
			"type":"VEC3"
		},
		{
			"bufferView":35,
			"componentType":5126,
			"count":32,
			"type":"VEC2"
		},
		{
			"bufferView":36,
			"componentType":5123,
			"count":48,
			"type":"SCALAR"
		},
		{
			"bufferView":37,
			"componentType":5126,
			"count":26,
			"max":[
				0.07991107553243637,
				0.5194835662841797,
				-0.001433081110008061
			],
			"min":[
				-0.15715280175209045,
				-0.1355271190404892,
				-0.01524770725518465
			],
			"type":"VEC3"
		},
		{
			"bufferView":38,
			"componentType":5126,
			"count":26,
			"type":"VEC3"
		},
		{
			"bufferView":39,
			"componentType":5126,
			"count":26,
			"type":"VEC2"
		},
		{
			"bufferView":40,
			"componentType":5123,
			"count":60,
			"type":"SCALAR"
		},
		{
			"bufferView":41,
			"componentType":5126,
			"count":180,
			"max":[
				0.06065437197685242,
				0.8370832204818726,
				-0.01524767279624939
			],
			"min":[
				-0.1378960907459259,
				-0.1355271339416504,
				-0.571650505065918
			],
			"type":"VEC3"
		},
		{
			"bufferView":42,
			"componentType":5126,
			"count":180,
			"type":"VEC3"
		},
		{
			"bufferView":43,
			"componentType":5126,
			"count":180,
			"type":"VEC2"
		},
		{
			"bufferView":44,
			"componentType":5123,
			"count":384,
			"type":"SCALAR"
		},
		{
			"bufferView":45,
			"componentType":5126,
			"count":32,
			"max":[
				0.04816390573978424,
				0.8245927095413208,
				-0.022283274680376053
			],
			"min":[
				-0.12540560960769653,
				-0.12303666770458221,
				-0.5646149516105652
			],
			"type":"VEC3"
		},
		{
			"bufferView":46,
			"componentType":5126,
			"count":32,
			"type":"VEC3"
		},
		{
			"bufferView":47,
			"componentType":5126,
			"count":32,
			"type":"VEC2"
		},
		{
			"bufferView":48,
			"componentType":5123,
			"count":48,
			"type":"SCALAR"
		},
		{
			"bufferView":49,
			"componentType":5126,
			"count":56,
			"max":[
				0.06065439432859421,
				0.8370832204818726,
				-0.0014330807607620955
			],
			"min":[
				-0.1378960907459259,
				-0.1355271339416504,
				-0.585465133190155
			],
			"type":"VEC3"
		},
		{
			"bufferView":50,
			"componentType":5126,
			"count":56,
			"type":"VEC3"
		},
		{
			"bufferView":51,
			"componentType":5126,
			"count":56,
			"type":"VEC2"
		},
		{
			"bufferView":52,
			"componentType":5123,
			"count":120,
			"type":"SCALAR"
		},
		{
			"bufferView":53,
			"componentType":5126,
			"count":1996,
			"max":[
				0.3387802839279175,
				1.9000197649002075,
				0.33878305554389954
			],
			"min":[
				-0.3387725055217743,
				-1.0410118989057082e-07,
				-0.338778018951416
			],
			"type":"VEC3"
		},
		{
			"bufferView":54,
			"componentType":5126,
			"count":1996,
			"type":"VEC3"
		},
		{
			"bufferView":55,
			"componentType":5126,
			"count":1996,
			"type":"VEC2"
		},
		{
			"bufferView":56,
			"componentType":5123,
			"count":5736,
			"type":"SCALAR"
		},
		{
			"bufferView":57,
			"componentType":5126,
			"count":591,
			"max":[
				0.17721158266067505,
				2.191817283630371,
				0.17721085250377655
			],
			"min":[
				-0.17721951007843018,
				1.5122944116592407,
				-0.17722032964229584
			],
			"type":"VEC3"
		},
		{
			"bufferView":58,
			"componentType":5126,
			"count":591,
			"type":"VEC3"
		},
		{
			"bufferView":59,
			"componentType":5126,
			"count":591,
			"type":"VEC2"
		},
		{
			"bufferView":60,
			"componentType":5123,
			"count":2622,
			"type":"SCALAR"
		},
		{
			"bufferView":61,
			"componentType":5126,
			"count":563,
			"max":[
				0.3387802839279175,
				1.3111549615859985,
				0.33878305554389954
			],
			"min":[
				-0.3387725055217743,
				1.1447545289993286,
				-0.338778018951416
			],
			"type":"VEC3"
		},
		{
			"bufferView":62,
			"componentType":5126,
			"count":563,
			"type":"VEC3"
		},
		{
			"bufferView":63,
			"componentType":5126,
			"count":563,
			"type":"VEC2"
		},
		{
			"bufferView":64,
			"componentType":5123,
			"count":2148,
			"type":"SCALAR"
		},
		{
			"bufferView":65,
			"componentType":5126,
			"count":346,
			"max":[
				0.29108816385269165,
				1.2325854301452637,
				0.29108816385269165
			],
			"min":[
				-0.2910880744457245,
				0.002790197730064392,
				-0.29108840227127075
			],
			"type":"VEC3"
		},
		{
			"bufferView":66,
			"componentType":5126,
			"count":346,
			"type":"VEC3"
		},
		{
			"bufferView":67,
			"componentType":5126,
			"count":346,
			"type":"VEC2"
		},
		{
			"bufferView":68,
			"componentType":5123,
			"count":606,
			"type":"SCALAR"
		}
	],
	"bufferViews":[
		{
			"buffer":0,
			"byteLength":8064,
			"byteOffset":0,
			"target":34962
		},
		{
			"buffer":0,
			"byteLength":8064,
			"byteOffset":8064,
			"target":34962
		},
		{
			"buffer":0,
			"byteLength":5376,
			"byteOffset":16128,
			"target":34962
		},
		{
			"buffer":0,
			"byteLength":2100,
			"byteOffset":21504,
			"target":34963
		},
		{
			"buffer":0,
			"byteLength":68520,
			"byteOffset":23604,
			"target":34962
		},
		{
			"buffer":0,
			"byteLength":68520,
			"byteOffset":92124,
			"target":34962
		},
		{
			"buffer":0,
			"byteLength":45680,
			"byteOffset":160644,
			"target":34962
		},
		{
			"buffer":0,
			"byteLength":29280,
			"byteOffset":206324,
			"target":34963
		},
		{
			"buffer":0,
			"byteLength":3840,
			"byteOffset":235604,
			"target":34962
		},
		{
			"buffer":0,
			"byteLength":3840,
			"byteOffset":239444,
			"target":34962
		},
		{
			"buffer":0,
			"byteLength":2560,
			"byteOffset":243284,
			"target":34962
		},
		{
			"buffer":0,
			"byteLength":1152,
			"byteOffset":245844,
			"target":34963
		},
		{
			"buffer":0,
			"byteLength":3804,
			"byteOffset":246996,
			"target":34962
		},
		{
			"buffer":0,
			"byteLength":3804,
			"byteOffset":250800,
			"target":34962
		},
		{
			"buffer":0,
			"byteLength":2536,
			"byteOffset":254604,
			"target":34962
		},
		{
			"buffer":0,
			"byteLength":1536,
			"byteOffset":257140,
			"target":34963
		},
		{
			"buffer":0,
			"byteLength":576,
			"byteOffset":258676,
			"target":34962
		},
		{
			"buffer":0,
			"byteLength":576,
			"byteOffset":259252,
			"target":34962
		},
		{
			"buffer":0,
			"byteLength":384,
			"byteOffset":259828,
			"target":34962
		},
		{
			"buffer":0,
			"byteLength":192,
			"byteOffset":260212,
			"target":34963
		},
		{
			"buffer":0,
			"byteLength":3840,
			"byteOffset":260404,
			"target":34962
		},
		{
			"buffer":0,
			"byteLength":3840,
			"byteOffset":264244,
			"target":34962
		},
		{
			"buffer":0,
			"byteLength":2560,
			"byteOffset":268084,
			"target":34962
		},
		{
			"buffer":0,
			"byteLength":3804,
			"byteOffset":270644,
			"target":34962
		},
		{
			"buffer":0,
			"byteLength":3804,
			"byteOffset":274448,
			"target":34962
		},
		{
			"buffer":0,
			"byteLength":2536,
			"byteOffset":278252,
			"target":34962
		},
		{
			"buffer":0,
			"byteLength":576,
			"byteOffset":280788,
			"target":34962
		},
		{
			"buffer":0,
			"byteLength":576,
			"byteOffset":281364,
			"target":34962
		},
		{
			"buffer":0,
			"byteLength":384,
			"byteOffset":281940,
			"target":34962
		},
		{
			"buffer":0,
			"byteLength":2172,
			"byteOffset":282324,
			"target":34962
		},
		{
			"buffer":0,
			"byteLength":2172,
			"byteOffset":284496,
			"target":34962
		},
		{
			"buffer":0,
			"byteLength":1448,
			"byteOffset":286668,
			"target":34962
		},
		{
			"buffer":0,
			"byteLength":792,
			"byteOffset":288116,
			"target":34963
		},
		{
			"buffer":0,
			"byteLength":384,
			"byteOffset":288908,
			"target":34962
		},
		{
			"buffer":0,
			"byteLength":384,
			"byteOffset":289292,
			"target":34962
		},
		{
			"buffer":0,
			"byteLength":256,
			"byteOffset":289676,
			"target":34962
		},
		{
			"buffer":0,
			"byteLength":96,
			"byteOffset":289932,
			"target":34963
		},
		{
			"buffer":0,
			"byteLength":312,
			"byteOffset":290028,
			"target":34962
		},
		{
			"buffer":0,
			"byteLength":312,
			"byteOffset":290340,
			"target":34962
		},
		{
			"buffer":0,
			"byteLength":208,
			"byteOffset":290652,
			"target":34962
		},
		{
			"buffer":0,
			"byteLength":120,
			"byteOffset":290860,
			"target":34963
		},
		{
			"buffer":0,
			"byteLength":2160,
			"byteOffset":290980,
			"target":34962
		},
		{
			"buffer":0,
			"byteLength":2160,
			"byteOffset":293140,
			"target":34962
		},
		{
			"buffer":0,
			"byteLength":1440,
			"byteOffset":295300,
			"target":34962
		},
		{
			"buffer":0,
			"byteLength":768,
			"byteOffset":296740,
			"target":34963
		},
		{
			"buffer":0,
			"byteLength":384,
			"byteOffset":297508,
			"target":34962
		},
		{
			"buffer":0,
			"byteLength":384,
			"byteOffset":297892,
			"target":34962
		},
		{
			"buffer":0,
			"byteLength":256,
			"byteOffset":298276,
			"target":34962
		},
		{
			"buffer":0,
			"byteLength":96,
			"byteOffset":298532,
			"target":34963
		},
		{
			"buffer":0,
			"byteLength":672,
			"byteOffset":298628,
			"target":34962
		},
		{
			"buffer":0,
			"byteLength":672,
			"byteOffset":299300,
			"target":34962
		},
		{
			"buffer":0,
			"byteLength":448,
			"byteOffset":299972,
			"target":34962
		},
		{
			"buffer":0,
			"byteLength":240,
			"byteOffset":300420,
			"target":34963
		},
		{
			"buffer":0,
			"byteLength":23952,
			"byteOffset":300660,
			"target":34962
		},
		{
			"buffer":0,
			"byteLength":23952,
			"byteOffset":324612,
			"target":34962
		},
		{
			"buffer":0,
			"byteLength":15968,
			"byteOffset":348564,
			"target":34962
		},
		{
			"buffer":0,
			"byteLength":11472,
			"byteOffset":364532,
			"target":34963
		},
		{
			"buffer":0,
			"byteLength":7092,
			"byteOffset":376004,
			"target":34962
		},
		{
			"buffer":0,
			"byteLength":7092,
			"byteOffset":383096,
			"target":34962
		},
		{
			"buffer":0,
			"byteLength":4728,
			"byteOffset":390188,
			"target":34962
		},
		{
			"buffer":0,
			"byteLength":5244,
			"byteOffset":394916,
			"target":34963
		},
		{
			"buffer":0,
			"byteLength":6756,
			"byteOffset":400160,
			"target":34962
		},
		{
			"buffer":0,
			"byteLength":6756,
			"byteOffset":406916,
			"target":34962
		},
		{
			"buffer":0,
			"byteLength":4504,
			"byteOffset":413672,
			"target":34962
		},
		{
			"buffer":0,
			"byteLength":4296,
			"byteOffset":418176,
			"target":34963
		},
		{
			"buffer":0,
			"byteLength":4152,
			"byteOffset":422472,
			"target":34962
		},
		{
			"buffer":0,
			"byteLength":4152,
			"byteOffset":426624,
			"target":34962
		},
		{
			"buffer":0,
			"byteLength":2768,
			"byteOffset":430776,
			"target":34962
		},
		{
			"buffer":0,
			"byteLength":1212,
			"byteOffset":433544,
			"target":34963
		}
	],
	"buffers":[
		{
			"byteLength":434756,
			"uri":"data:application/octet-stream;base64,"
		}
	]
}
